<?xml version="1.0" encoding="UTF-8"?>
<svg id="Camada_1" xmlns="http://www.w3.org/2000/svg" version="1.1" viewBox="0 0 48 48">
  <!-- Generator: Adobe Illustrator 29.3.0, SVG Export Plug-In . SVG Version: 2.1.0 Build 146)  -->
  <defs>
    <style>
      .st0 {
        fill: #32bcad;
      }
    </style>
  </defs>
  <path id="path2376" class="st0" d="M37.4,36.7c-1.9,0-3.7-.7-5-2.1l-7.2-7.2c-.5-.5-1.4-.5-1.9,0l-7.2,7.2c-1.3,1.3-3.1,2.1-5,2.1h-1.4l9.1,9.1c2.8,2.8,7.5,2.8,10.3,0l9.1-9.1h-.9Z"/>
  <path id="path2380" class="st0" d="M11.1,11.3c1.9,0,3.7.7,5,2.1l7.2,7.2c.5.5,1.4.5,1.9,0l7.2-7.2c1.3-1.3,3.1-2.1,5-2.1h.9L29.2,2.1c-2.8-2.8-7.5-2.8-10.3,0l-9.1,9.1h1.4Z"/>
  <path id="path2384" class="st0" d="M45.9,18.8l-5.5-5.5c-.1,0-.3,0-.4,0h-2.5c-1.3,0-2.6.5-3.5,1.4l-7.2,7.2c-.7.7-1.6,1-2.4,1s-1.8-.3-2.4-1l-7.2-7.2c-.9-.9-2.2-1.4-3.5-1.4h-3.1c-.1,0-.3,0-.4,0l-5.5,5.5c-2.8,2.8-2.8,7.5,0,10.3l5.5,5.5c.1,0,.2,0,.4,0h3.1c1.3,0,2.6-.5,3.5-1.4l7.2-7.2c1.3-1.3,3.6-1.3,4.9,0l7.2,7.2c.9.9,2.2,1.4,3.5,1.4h2.5c.1,0,.3,0,.4,0l5.5-5.5c2.8-2.8,2.8-7.5,0-10.3"/>
</svg>