<?xml version="1.0" encoding="UTF-8"?>
<svg id="Camada_1" xmlns="http://www.w3.org/2000/svg" version="1.1" viewBox="0 0 360.1 57.4">
  <!-- Generator: Adobe Illustrator 29.3.0, SVG Export Plug-In . SVG Version: 2.1.0 Build 146)  -->
  <defs>
    <style>
      .st0 {
        fill: #f79450;
      }

      .st1 {
        fill: #fafafa;
      }
    </style>
  </defs>
  <g id="Poppins">
    <path class="st1" d="M10.9,55.4c-3.2-1.3-5.8-3.3-7.8-5.9-1.9-2.6-2.8-7.9-2.8-7.9-.1-.8.4-1.5,1.3-1.5h11.5c.8,0,1.7.7,1.9,1.5,0,0,.6,2.2,1.8,3.3,1.2,1.1,2.8,1.6,4.8,1.6s3.6-.5,4.8-1.4c1.2-.9,1.8-2.2,1.8-3.9s-.5-2.5-1.4-3.4c-.9-.9-2.1-1.6-3.4-2.2-1.4-.6-3.3-1.2-5.8-2-3.6-1.1-6.6-2.2-8.9-3.4-2.3-1.1-4.3-2.8-5.9-4.9C1,23,.2,20.2.2,16.7.2,11.5,2,7.4,5.8,4.4,9.6,1.5,14.5,0,20.6,0s11.1,1.5,14.9,4.4c3.8,3,5.7,10.9,5.7,10.9.2.8-.3,1.5-1.1,1.5h-11.8c-.8,0-1.7-.7-1.8-1.5,0,0-.4-1.8-1.6-2.8-1.2-1-2.8-1.6-4.7-1.6s-3,.4-4,1.3c-1,.9-1.5,2.1-1.5,3.8s.9,3.2,2.6,4.2c1.7,1,4.4,2.1,8,3.3,3.6,1.2,6.6,2.4,8.8,3.5,2.3,1.1,4.2,2.7,5.9,4.9,1.6,2.1,2.5,4.9,2.5,8.2s-.8,6.1-2.4,8.7c-1.6,2.6-4,4.7-7.1,6.2-3.1,1.5-6.7,2.3-10.9,2.3s-7.8-.7-11-2Z"/>
    <path class="st1" d="M98.2.4c.8,0,1.2.6.8,1.3l-18.5,35.3c-.4.7-.7,2-.7,2.8v15.7c0,.8-.7,1.5-1.5,1.5h-11c-.8,0-1.5-.7-1.5-1.5v-15.7c0-.8-.3-2.1-.7-2.8L46.7,1.8c-.4-.7,0-1.3.8-1.3h12.9c.8,0,1.8.6,2.1,1.4l9.8,21c.3.7.9.7,1.3,0L83.4,1.8c.3-.7,1.3-1.4,2.1-1.4h12.7Z"/>
    <path class="st1" d="M155.9,55.6c0,.8-.7,1.5-1.5,1.5h-10.1c-.8,0-1.9-.6-2.3-1.2l-21.7-32.5c-.5-.7-.8-.6-.8.3v32c0,.8-.7,1.5-1.5,1.5h-11c-.8,0-1.5-.7-1.5-1.5V1.9c0-.8.7-1.5,1.5-1.5h10.1c.8,0,1.9.6,2.3,1.2l21.7,32.6c.5.7.8.6.8-.3V1.9c0-.8.7-1.5,1.5-1.5h11c.8,0,1.5.7,1.5,1.5v53.7Z"/>
    <path class="st0" d="M163.5,57.1c-.8,0-1.3-.6-1-1.4L181.6,1.9c.3-.8,1.2-1.4,2-1.4h14.3c.8,0,1.7.6,2,1.4l19.1,53.9c.3.8-.2,1.4-1,1.4h-11.7c-.8,0-1.7-.6-2-1.4l-13.1-39.9c-.3-.8-.7-.8-.9,0l-13.2,39.9c-.3.8-1.1,1.4-2,1.4h-11.6Z"/>
    <path class="st1" d="M266.2,27.8c-1.5,2.7-3.8,4.9-7,6.6-3.1,1.7-10.2,2.4-10.2,2.4-.8,0-2.2.1-3,.1h-5.5c-.8,0-1.5.7-1.5,1.5v17.2c0,.8-.7,1.5-1.5,1.5h-11c-.8,0-1.5-.7-1.5-1.5V1.9c0-.8.7-1.5,1.5-1.5h19.5c.8,0,2.2,0,3,.1,0,0,6.9.6,10,2.2,3.1,1.6,5.5,3.7,7.1,6.5,1.6,2.8,2.4,5.9,2.4,9.5s-.8,6.3-2.3,9ZM252.2,23.5c1.3-1.2,1.9-2.9,1.9-5.2s-.6-3.9-1.9-5.2c-1.3-1.2-4.3-1.6-4.3-1.6-.8-.1-2.2-.2-3-.2h-4.4c-.8,0-1.5.7-1.5,1.5v11c0,.8.7,1.5,1.5,1.5h4.4c.8,0,2.2,0,3-.2,0,0,3-.4,4.3-1.6Z"/>
    <path class="st1" d="M285.3,55.4c-3.2-1.3-5.8-3.3-7.8-5.9-1.9-2.6-2.8-7.9-2.8-7.9-.1-.8.4-1.5,1.3-1.5h11.5c.8,0,1.7.7,1.9,1.5,0,0,.6,2.2,1.8,3.3,1.2,1.1,2.8,1.6,4.8,1.6s3.6-.5,4.8-1.4c1.2-.9,1.8-2.2,1.8-3.9s-.5-2.5-1.4-3.4c-.9-.9-2.1-1.6-3.4-2.2-1.4-.6-3.3-1.2-5.8-2-3.6-1.1-6.6-2.2-8.9-3.4-2.3-1.1-4.3-2.8-5.9-4.9-1.6-2.2-2.5-5-2.5-8.5,0-5.2,1.9-9.3,5.7-12.2,3.8-3,8.7-4.4,14.8-4.4s11.1,1.5,14.9,4.4c3.8,3,5.7,10.9,5.7,10.9.2.8-.3,1.5-1.1,1.5h-11.8c-.8,0-1.7-.7-1.8-1.5,0,0-.4-1.8-1.6-2.8-1.2-1-2.8-1.6-4.7-1.6s-3,.4-4,1.3c-1,.9-1.5,2.1-1.5,3.8s.9,3.2,2.6,4.2c1.7,1,4.4,2.1,8,3.3,3.6,1.2,6.6,2.4,8.8,3.5,2.3,1.1,4.2,2.7,5.9,4.9,1.6,2.1,2.5,4.9,2.5,8.2s-.8,6.1-2.4,8.7c-1.6,2.6-4,4.7-7.1,6.2-3.1,1.5-6.7,2.3-10.9,2.3s-7.8-.7-11-2Z"/>
    <path class="st1" d="M340.7,11.3c-.8,0-1.5.7-1.5,1.5v8.6c0,.8.7,1.5,1.5,1.5h15.6c.8,0,1.5.7,1.5,1.5v7.9c0,.8-.7,1.5-1.5,1.5h-15.6c-.8,0-1.5.7-1.5,1.5v8.6c0,.8.7,1.5,1.5,1.5h18c.8,0,1.5.7,1.5,1.5v8.6c0,.8-.7,1.5-1.5,1.5h-31.9c-.8,0-1.5-.7-1.5-1.5V1.9c0-.8.7-1.5,1.5-1.5h31.9c.8,0,1.5.7,1.5,1.5v7.9c0,.8-.7,1.5-1.5,1.5h-18Z"/>
  </g>
</svg>